<svg width="256" height="256" xmlns="http://www.w3.org/2000/svg" preserveAspectRatio="xMidYMid meet">

 <g>
  <title>background</title>
  <rect fill="none" id="canvas_background" height="402" width="582" y="-1" x="-1"/>
 </g>
 <g>
  <title>Layer 1</title>
  <rect id="svg_3" height="213" width="221" y="19.78125" x="17.5" stroke-width="1.5" stroke="#000" fill="#cfcfcf"/>
  <g id="svg_1" fill="#000000" transform="translate(0,256) scale(0.10000000149011612,-0.10000000149011612) ">
   <path fill="#1e1e1e" id="svg_2" d="m323,2545c-77,-21 -130,-51 -188,-106c-60,-57 -98,-122 -120,-204c-22,-88 -23,-1821 0,-1908c21,-81 49,-132 106,-192c57,-60 122,-98 204,-120c89,-23 1821,-23 1910,0c82,22 147,60 204,120c57,60 85,111 106,192c23,87 22,1820 0,1908c-22,82 -60,147 -120,204c-60,57 -111,85 -192,106c-83,22 -1830,21 -1910,0zm746,-305c63,-31 81,-68 81,-167l0,-83l271,0c296,0 320,-4 355,-58c25,-37 24,-104 -2,-139c-33,-45 -79,-63 -164,-63l-75,0l-21,-98c-38,-172 -106,-315 -218,-456c-31,-38 -53,-73 -50,-78c7,-12 151,-108 162,-108c4,0 56,99 115,220c118,243 132,260 214,260c77,0 86,-13 347,-537c261,-525 255,-507 200,-573c-27,-31 -77,-60 -103,-60c-9,1 -34,13 -56,28c-36,24 -57,61 -216,377l-177,350l-86,-173c-47,-94 -86,-174 -86,-176c0,-2 48,-6 108,-8c83,-3 113,-8 135,-22c57,-38 73,-114 37,-173c-34,-56 -60,-63 -247,-63l-168,0l-26,-48c-18,-32 -40,-54 -69,-69c-42,-23 -80,-30 -80,-15c0,4 -13,13 -30,19c-36,13 -70,67 -70,111c0,20 26,85 71,173c38,78 69,142 67,143c-96,72 -261,175 -270,170c-7,-4 -99,-70 -206,-146c-187,-133 -196,-138 -244,-138c-43,0 -54,4 -83,33c-41,41 -52,90 -32,139c11,27 47,58 158,138c79,57 159,114 176,127l33,24l-48,58c-99,119 -202,313 -202,381c0,51 27,90 76,112c88,38 134,8 203,-136c28,-58 77,-138 112,-182l62,-78l44,50c91,102 176,269 197,386l7,37l-470,3c-459,3 -470,3 -498,24c-15,12 -36,41 -47,66c-18,45 -18,46 0,84c11,21 34,49 53,61c33,22 40,23 307,23l274,0l0,70c0,100 24,148 93,186c31,17 38,17 86,-6z"/>
  </g>
 </g>
</svg>